<?xml version="1.0" encoding="UTF-8"?>
<svg width="128" height="128" viewBox="0 0 128 128" fill="none" xmlns="http://www.w3.org/2000/svg">
  <defs>
    <!-- 星空背景 -->
    <linearGradient id="bg" x1="0%" y1="0%" x2="100%" y2="100%">
      <stop offset="0%" style="stop-color:#0f0f23;stop-opacity:1" />
      <stop offset="100%" style="stop-color:#1a1a3e;stop-opacity:1" />
    </linearGradient>
    
    <!-- 主星光晕（金色） -->
    <radialGradient id="mainGlow">
      <stop offset="0%" style="stop-color:#fbbf24;stop-opacity:1" />
      <stop offset="60%" style="stop-color:#f59e0b;stop-opacity:0.6" />
      <stop offset="100%" style="stop-color:#d97706;stop-opacity:0" />
    </radialGradient>
    
    <!-- 小星光晕 -->
    <radialGradient id="starGlow">
      <stop offset="0%" style="stop-color:#e0e7ff;stop-opacity:1" />
      <stop offset="70%" style="stop-color:#c7d2fe;stop-opacity:0.5" />
      <stop offset="100%" style="stop-color:#a5b4fc;stop-opacity:0" />
    </radialGradient>
    
    <filter id="glow">
      <feGaussianBlur stdDeviation="1.5" result="coloredBlur"/>
      <feMerge>
        <feMergeNode in="coloredBlur"/>
        <feMergeNode in="SourceGraphic"/>
      </feMerge>
    </filter>
  </defs>
  
  <!-- 圆角背景 -->
  <rect width="128" height="128" rx="24" fill="url(#bg)"/>
  
  <!-- 北斗七星连线 -->
  <path d="M52,40 L68,37 L78,48 L82,62 L85,72 L92,83 L102,90" 
        stroke="#6366f1" 
        stroke-width="0.8" 
        fill="none" 
        opacity="0.4"
        stroke-linecap="round"/>
  
  <!-- 北斗七星（简化） -->
  <g transform="translate(52, 40)">
    <circle r="3" fill="#e0e7ff" filter="url(#glow)"/>
    <circle r="1.8" fill="white"/>
  </g>
  
  <g transform="translate(68, 37)">
    <circle r="3" fill="#e0e7ff" filter="url(#glow)"/>
    <circle r="1.8" fill="white"/>
  </g>
  
  <g transform="translate(78, 48)">
    <circle r="2.8" fill="#e0e7ff" filter="url(#glow)"/>
    <circle r="1.6" fill="white"/>
  </g>
  
  <g transform="translate(82, 62)">
    <circle r="2.8" fill="#e0e7ff" filter="url(#glow)"/>
    <circle r="1.6" fill="white"/>
  </g>
  
  <g transform="translate(85, 72)">
    <circle r="2.8" fill="#e0e7ff" filter="url(#glow)"/>
    <circle r="1.6" fill="white"/>
  </g>
  
  <g transform="translate(92, 83)">
    <circle r="2.5" fill="#e0e7ff" filter="url(#glow)"/>
    <circle r="1.5" fill="white"/>
  </g>
  
  <g transform="translate(102, 90)">
    <circle r="2.5" fill="#e0e7ff" filter="url(#glow)"/>
    <circle r="1.5" fill="white"/>
  </g>
  
  <!-- 天闲星君（中心，金色） -->
  <g transform="translate(64, 64)">
    <circle r="20" fill="url(#mainGlow)" opacity="0.3"/>
    <circle r="14" fill="url(#mainGlow)" opacity="0.4"/>
    <circle r="6.5" fill="#fbbf24" filter="url(#glow)"/>
    <circle r="5" fill="#fcd34d"/>
    <circle r="3" fill="#fef3c7"/>
    <circle r="1.5" fill="white"/>
    
    <!-- 八芒星光 -->
    <path d="M0,-10 L1.2,-3.5 L0,-1.5 L-1.2,-3.5 Z" fill="white" opacity="0.95"/>
    <path d="M0,10 L1.2,3.5 L0,1.5 L-1.2,3.5 Z" fill="white" opacity="0.95"/>
    <path d="M-10,0 L-3.5,1.2 L-1.5,0 L-3.5,-1.2 Z" fill="white" opacity="0.95"/>
    <path d="M10,0 L3.5,1.2 L1.5,0 L3.5,-1.2 Z" fill="white" opacity="0.95"/>
  </g>
  
  <!-- 装饰星点 -->
  <circle cx="20" cy="25" r="0.8" fill="white" opacity="0.6"/>
  <circle cx="108" cy="30" r="0.6" fill="white" opacity="0.5"/>
  <circle cx="25" cy="108" r="0.7" fill="white" opacity="0.5"/>
  <circle cx="103" cy="103" r="0.6" fill="white" opacity="0.6"/>
</svg>
